<?xml version="1.0" encoding="utf-8"?>
<!-- Generator: Adobe Illustrator 16.0.0, SVG Export Plug-In . SVG Version: 6.00 Build 0)  -->
<!DOCTYPE svg PUBLIC "-//W3C//DTD SVG 1.1//EN" "http://www.w3.org/Graphics/SVG/1.1/DTD/svg11.dtd">
<svg version="1.1" id="Layer_1" xmlns="http://www.w3.org/2000/svg" xmlns:xlink="http://www.w3.org/1999/xlink" x="0px" y="0px"
	 width="320px" height="480px" viewBox="0 0 320 480" enable-background="new 0 0 320 480" xml:space="preserve">
<path fill="#00BED4" d="M39.617,290.057c2.422,1.068,4.703,1.281,4.703-2.281v-74.603c0-1.567-0.57-1.853-1.781-2.351
	c-0.499-0.285-32.634-14.251-33.418-14.607c-0.784-0.356-0.356-0.998,0.57-1.354c1.568-0.57,7.767-2.708,8.479-2.921
	c0.998-0.356,2.28-0.356,3.634,0.214c2.993,1.282,26.862,11.686,28.929,12.612c2.138,0.926,2.494,1.496,2.494,3.207v65.696
	c0,0-0.214,1.211,1.069,1.211h3.848c1.069,0,0.926-1.067,0.926-1.067v-68.047c0-2.779-0.071-3.42-2.28-4.347
	c0,0-30.568-13.396-33.489-14.678c-1.853-0.784-4.062-0.926-6.057-0.213c-2.208,0.784-14.678,5.201-14.678,5.201
	C0.57,192.438,0,193.721,0,195.502v73.676c0,0.928,0,1.354,0.712,1.924L39.617,290.057z"/>
<text transform="matrix(1.0417 0 0 1 67.9658 232.5684)" fill="#FFFFFF" font-family="'PTMono-Bold'" font-size="40">Book</text>
<text transform="matrix(1.0417 0 0 1 67.9658 274.5)" fill="#FFFFFF" font-family="'PTMono-Bold'" font-size="40">Repository</text>
</svg>
